<svg width="810.0" height="1456.0" viewBox="0 0 810.0 1456.0" xmlns="http://www.w3.org/2000/svg">
<style>/* font and background color specifications */
svg {
    font-family: SFMono-Regular,Consolas,Liberation Mono,Menlo,monospace;
    font-size: 14px;
    font-kerning: normal;
    text-rendering: optimizeLegibility;
    fill: #24292e;
}

/* default key styling */
rect {
    fill: #f6f8fa;
    stroke: #c9cccf;
    stroke-width: 1;
}

/* color accent for combo boxes */
rect.combo {
    fill: #cdf;
}

/* color accent for held keys */
rect.held, rect.combo.held {
    fill: #fdd;
}

/* color accent for ghost (optional) keys */
rect.ghost, rect.combo.ghost {
    fill: #ddd;
}

text {
    text-anchor: middle;
    dominant-baseline: middle;
}

/* styling for layer labels */
text.label {
    font-weight: bold;
    text-anchor: start;
    stroke: white;
    stroke-width: 2;
    paint-order: stroke;
}

/* styling for combo tap, and key hold/shifted label text */
text.combo, text.hold, text.shifted {
    font-size: 11px;
}

text.hold {
    text-anchor: middle;
    dominant-baseline: auto;
}

text.shifted {
    text-anchor: middle;
    dominant-baseline: hanging;
}

/* styling for hold/shifted label text in combo box */
text.combo.hold, text.combo.shifted {
    font-size: 8px;
}

/* styling for combo dendrons */
path {
    stroke-width: 1;
    stroke: gray;
    fill: none;
}
</style>
<g class="layer-COLEMAK">
<text x="30.0" y="28.0" class="label">COLEMAK:</text>
<rect rx="6.0" ry="6.0" x="32.0" y="58.0" width="56.0" height="52.0" class=""/>
<text x="60.0" y="84.0" class="tap">Tab</text>
<rect rx="6.0" ry="6.0" x="92.0" y="58.0" width="56.0" height="52.0" class=""/>
<text x="120.0" y="84.0" class="tap">Q</text>
<rect rx="6.0" ry="6.0" x="152.0" y="58.0" width="56.0" height="52.0" class=""/>
<text x="180.0" y="84.0" class="tap">W</text>
<rect rx="6.0" ry="6.0" x="212.0" y="58.0" width="56.0" height="52.0" class=""/>
<text x="240.0" y="84.0" class="tap">F</text>
<rect rx="6.0" ry="6.0" x="272.0" y="58.0" width="56.0" height="52.0" class=""/>
<text x="300.0" y="84.0" class="tap">P</text>
<rect rx="6.0" ry="6.0" x="332.0" y="58.0" width="56.0" height="52.0" class=""/>
<text x="360.0" y="84.0" class="tap">B</text>
<rect rx="6.0" ry="6.0" x="422.0" y="58.0" width="56.0" height="52.0" class=""/>
<text x="450.0" y="84.0" class="tap">J</text>
<rect rx="6.0" ry="6.0" x="482.0" y="58.0" width="56.0" height="52.0" class=""/>
<text x="510.0" y="84.0" class="tap">L</text>
<rect rx="6.0" ry="6.0" x="542.0" y="58.0" width="56.0" height="52.0" class=""/>
<text x="570.0" y="84.0" class="tap">U</text>
<rect rx="6.0" ry="6.0" x="602.0" y="58.0" width="56.0" height="52.0" class=""/>
<text x="630.0" y="84.0" class="tap">Y</text>
<rect rx="6.0" ry="6.0" x="662.0" y="58.0" width="56.0" height="52.0" class=""/>
<text x="690.0" y="84.0" class="tap">;</text>
<rect rx="6.0" ry="6.0" x="722.0" y="58.0" width="56.0" height="52.0" class=""/>
<text x="750.0" y="84.0" class="tap">&#x27;</text>
<rect rx="6.0" ry="6.0" x="32.0" y="114.0" width="56.0" height="52.0" class=""/>
<text x="60.0" y="140.0" class="tap">Ctrl</text>
<rect rx="6.0" ry="6.0" x="92.0" y="114.0" width="56.0" height="52.0" class=""/>
<text x="120.0" y="140.0" class="tap">A</text>
<rect rx="6.0" ry="6.0" x="152.0" y="114.0" width="56.0" height="52.0" class=""/>
<text x="180.0" y="140.0" class="tap">R</text>
<rect rx="6.0" ry="6.0" x="212.0" y="114.0" width="56.0" height="52.0" class=""/>
<text x="240.0" y="140.0" class="tap">S</text>
<rect rx="6.0" ry="6.0" x="272.0" y="114.0" width="56.0" height="52.0" class=""/>
<text x="300.0" y="140.0" class="tap">T</text>
<rect rx="6.0" ry="6.0" x="332.0" y="114.0" width="56.0" height="52.0" class=""/>
<text x="360.0" y="140.0" class="tap">G</text>
<rect rx="6.0" ry="6.0" x="422.0" y="114.0" width="56.0" height="52.0" class=""/>
<text x="450.0" y="140.0" class="tap">M</text>
<rect rx="6.0" ry="6.0" x="482.0" y="114.0" width="56.0" height="52.0" class=""/>
<text x="510.0" y="140.0" class="tap">N</text>
<rect rx="6.0" ry="6.0" x="542.0" y="114.0" width="56.0" height="52.0" class=""/>
<text x="570.0" y="140.0" class="tap">E</text>
<rect rx="6.0" ry="6.0" x="602.0" y="114.0" width="56.0" height="52.0" class=""/>
<text x="630.0" y="140.0" class="tap">I</text>
<rect rx="6.0" ry="6.0" x="662.0" y="114.0" width="56.0" height="52.0" class=""/>
<text x="690.0" y="140.0" class="tap">O</text>
<rect rx="6.0" ry="6.0" x="722.0" y="114.0" width="56.0" height="52.0" class=""/>
<text x="750.0" y="140.0" class="tap">\</text>
<rect rx="6.0" ry="6.0" x="32.0" y="170.0" width="56.0" height="52.0" class=""/>
<text x="60.0" y="196.0" class="tap">Shift</text>
<rect rx="6.0" ry="6.0" x="92.0" y="170.0" width="56.0" height="52.0" class=""/>
<text x="120.0" y="196.0" class="tap">Z</text>
<rect rx="6.0" ry="6.0" x="152.0" y="170.0" width="56.0" height="52.0" class=""/>
<text x="180.0" y="196.0" class="tap">X</text>
<rect rx="6.0" ry="6.0" x="212.0" y="170.0" width="56.0" height="52.0" class=""/>
<text x="240.0" y="196.0" class="tap">C</text>
<rect rx="6.0" ry="6.0" x="272.0" y="170.0" width="56.0" height="52.0" class=""/>
<text x="300.0" y="196.0" class="tap">D</text>
<rect rx="6.0" ry="6.0" x="332.0" y="170.0" width="56.0" height="52.0" class=""/>
<text x="360.0" y="196.0" class="tap">V</text>
<rect rx="6.0" ry="6.0" x="422.0" y="170.0" width="56.0" height="52.0" class=""/>
<text x="450.0" y="196.0" class="tap">K</text>
<rect rx="6.0" ry="6.0" x="482.0" y="170.0" width="56.0" height="52.0" class=""/>
<text x="510.0" y="196.0" class="tap">H</text>
<rect rx="6.0" ry="6.0" x="542.0" y="170.0" width="56.0" height="52.0" class=""/>
<text x="570.0" y="196.0" class="tap">,</text>
<rect rx="6.0" ry="6.0" x="602.0" y="170.0" width="56.0" height="52.0" class=""/>
<text x="630.0" y="196.0" class="tap">.</text>
<rect rx="6.0" ry="6.0" x="662.0" y="170.0" width="56.0" height="52.0" class=""/>
<text x="690.0" y="196.0" class="tap">/</text>
<text x="690.0" y="220.0" class="hold">Ctrl</text>
<rect rx="6.0" ry="6.0" x="722.0" y="170.0" width="56.0" height="52.0" class=""/>
<text x="750.0" y="196.0" class="tap">=</text>
<rect rx="6.0" ry="6.0" x="212.0" y="226.0" width="56.0" height="52.0" class=""/>
<text x="240.0" y="252.0" class="tap">Alt</text>
<rect rx="6.0" ry="6.0" x="272.0" y="226.0" width="56.0" height="52.0" class=""/>
<text x="300.0" y="252.0" class="tap">Gui</text>
<rect rx="6.0" ry="6.0" x="332.0" y="226.0" width="56.0" height="52.0" class=""/>
<text x="360.0" y="252.0" class="tap">Space</text>
<text x="360.0" y="276.0" class="hold">L_NUMBER</text>
<rect rx="6.0" ry="6.0" x="422.0" y="226.0" width="56.0" height="52.0" class=""/>
<text x="450.0" y="252.0" class="tap">Enter</text>
<text x="450.0" y="276.0" class="hold">L_FUNCTION</text>
<rect rx="6.0" ry="6.0" x="482.0" y="226.0" width="56.0" height="52.0" class=""/>
<text x="510.0" y="252.0" class="tap">Bspace</text>
<text x="510.0" y="276.0" class="hold">Shift</text>
<rect rx="6.0" ry="6.0" x="542.0" y="226.0" width="56.0" height="52.0" class=""/>
<text x="570.0" y="252.0" class="tap">Esc/`</text>
</g>
<g class="layer-QWERTY">
<text x="30.0" y="308.0" class="label">QWERTY:</text>
<rect rx="6.0" ry="6.0" x="32.0" y="338.0" width="56.0" height="52.0" class=""/>
<text x="60.0" y="364.0" class="tap">Tab</text>
<rect rx="6.0" ry="6.0" x="92.0" y="338.0" width="56.0" height="52.0" class=""/>
<text x="120.0" y="364.0" class="tap">Q</text>
<rect rx="6.0" ry="6.0" x="152.0" y="338.0" width="56.0" height="52.0" class=""/>
<text x="180.0" y="364.0" class="tap">W</text>
<rect rx="6.0" ry="6.0" x="212.0" y="338.0" width="56.0" height="52.0" class=""/>
<text x="240.0" y="364.0" class="tap">E</text>
<rect rx="6.0" ry="6.0" x="272.0" y="338.0" width="56.0" height="52.0" class=""/>
<text x="300.0" y="364.0" class="tap">R</text>
<rect rx="6.0" ry="6.0" x="332.0" y="338.0" width="56.0" height="52.0" class=""/>
<text x="360.0" y="364.0" class="tap">T</text>
<rect rx="6.0" ry="6.0" x="422.0" y="338.0" width="56.0" height="52.0" class=""/>
<text x="450.0" y="364.0" class="tap">Y</text>
<rect rx="6.0" ry="6.0" x="482.0" y="338.0" width="56.0" height="52.0" class=""/>
<text x="510.0" y="364.0" class="tap">U</text>
<rect rx="6.0" ry="6.0" x="542.0" y="338.0" width="56.0" height="52.0" class=""/>
<text x="570.0" y="364.0" class="tap">I</text>
<rect rx="6.0" ry="6.0" x="602.0" y="338.0" width="56.0" height="52.0" class=""/>
<text x="630.0" y="364.0" class="tap">O</text>
<rect rx="6.0" ry="6.0" x="662.0" y="338.0" width="56.0" height="52.0" class=""/>
<text x="690.0" y="364.0" class="tap">P</text>
<rect rx="6.0" ry="6.0" x="722.0" y="338.0" width="56.0" height="52.0" class=""/>
<text x="750.0" y="364.0" class="tap">\</text>
<rect rx="6.0" ry="6.0" x="32.0" y="394.0" width="56.0" height="52.0" class=""/>
<text x="60.0" y="420.0" class="tap">ESC</text>
<rect rx="6.0" ry="6.0" x="92.0" y="394.0" width="56.0" height="52.0" class=""/>
<text x="120.0" y="420.0" class="tap">A</text>
<rect rx="6.0" ry="6.0" x="152.0" y="394.0" width="56.0" height="52.0" class=""/>
<text x="180.0" y="420.0" class="tap">S</text>
<rect rx="6.0" ry="6.0" x="212.0" y="394.0" width="56.0" height="52.0" class=""/>
<text x="240.0" y="420.0" class="tap">D</text>
<rect rx="6.0" ry="6.0" x="272.0" y="394.0" width="56.0" height="52.0" class=""/>
<text x="300.0" y="420.0" class="tap">F</text>
<rect rx="6.0" ry="6.0" x="332.0" y="394.0" width="56.0" height="52.0" class=""/>
<text x="360.0" y="420.0" class="tap">G</text>
<rect rx="6.0" ry="6.0" x="422.0" y="394.0" width="56.0" height="52.0" class=""/>
<text x="450.0" y="420.0" class="tap">H</text>
<rect rx="6.0" ry="6.0" x="482.0" y="394.0" width="56.0" height="52.0" class=""/>
<text x="510.0" y="420.0" class="tap">J</text>
<rect rx="6.0" ry="6.0" x="542.0" y="394.0" width="56.0" height="52.0" class=""/>
<text x="570.0" y="420.0" class="tap">K</text>
<rect rx="6.0" ry="6.0" x="602.0" y="394.0" width="56.0" height="52.0" class=""/>
<text x="630.0" y="420.0" class="tap">L</text>
<rect rx="6.0" ry="6.0" x="662.0" y="394.0" width="56.0" height="52.0" class=""/>
<text x="690.0" y="420.0" class="tap">;</text>
<rect rx="6.0" ry="6.0" x="722.0" y="394.0" width="56.0" height="52.0" class=""/>
<text x="750.0" y="420.0" class="tap">&#x27;</text>
<rect rx="6.0" ry="6.0" x="32.0" y="450.0" width="56.0" height="52.0" class=""/>
<text x="60.0" y="476.0" class="tap">Shift</text>
<rect rx="6.0" ry="6.0" x="92.0" y="450.0" width="56.0" height="52.0" class=""/>
<text x="120.0" y="476.0" class="tap">Z</text>
<rect rx="6.0" ry="6.0" x="152.0" y="450.0" width="56.0" height="52.0" class=""/>
<text x="180.0" y="476.0" class="tap">X</text>
<rect rx="6.0" ry="6.0" x="212.0" y="450.0" width="56.0" height="52.0" class=""/>
<text x="240.0" y="476.0" class="tap">C</text>
<rect rx="6.0" ry="6.0" x="272.0" y="450.0" width="56.0" height="52.0" class=""/>
<text x="300.0" y="476.0" class="tap">V</text>
<rect rx="6.0" ry="6.0" x="332.0" y="450.0" width="56.0" height="52.0" class=""/>
<text x="360.0" y="476.0" class="tap">B</text>
<rect rx="6.0" ry="6.0" x="422.0" y="450.0" width="56.0" height="52.0" class=""/>
<text x="450.0" y="476.0" class="tap">N</text>
<rect rx="6.0" ry="6.0" x="482.0" y="450.0" width="56.0" height="52.0" class=""/>
<text x="510.0" y="476.0" class="tap">M</text>
<rect rx="6.0" ry="6.0" x="542.0" y="450.0" width="56.0" height="52.0" class=""/>
<text x="570.0" y="476.0" class="tap">,</text>
<rect rx="6.0" ry="6.0" x="602.0" y="450.0" width="56.0" height="52.0" class=""/>
<text x="630.0" y="476.0" class="tap">.</text>
<rect rx="6.0" ry="6.0" x="662.0" y="450.0" width="56.0" height="52.0" class=""/>
<text x="690.0" y="476.0" class="tap">/</text>
<rect rx="6.0" ry="6.0" x="722.0" y="450.0" width="56.0" height="52.0" class=""/>
<text x="750.0" y="476.0" class="tap">=</text>
<rect rx="6.0" ry="6.0" x="212.0" y="506.0" width="56.0" height="52.0" class=""/>
<text x="240.0" y="532.0" class="tap">Alt</text>
<rect rx="6.0" ry="6.0" x="272.0" y="506.0" width="56.0" height="52.0" class=""/>
<text x="300.0" y="532.0" class="tap">Gui</text>
<rect rx="6.0" ry="6.0" x="332.0" y="506.0" width="56.0" height="52.0" class=""/>
<text x="360.0" y="532.0" class="tap">Space</text>
<text x="360.0" y="556.0" class="hold">L_NUMBER</text>
<rect rx="6.0" ry="6.0" x="422.0" y="506.0" width="56.0" height="52.0" class=""/>
<text x="450.0" y="532.0" class="tap">Enter</text>
<text x="450.0" y="556.0" class="hold">L_FUNCTION</text>
<rect rx="6.0" ry="6.0" x="482.0" y="506.0" width="56.0" height="52.0" class=""/>
<text x="510.0" y="532.0" class="tap">Bspace</text>
<text x="510.0" y="556.0" class="hold">Shift</text>
<rect rx="6.0" ry="6.0" x="542.0" y="506.0" width="56.0" height="52.0" class=""/>
<text x="570.0" y="532.0" class="tap">Esc/`</text>
</g>
<g class="layer-NUMBER">
<text x="30.0" y="588.0" class="label">NUMBER:</text>
<rect rx="6.0" ry="6.0" x="32.0" y="618.0" width="56.0" height="52.0" class=""/>
<text x="60.0" y="644.0" class="tap">`</text>
<rect rx="6.0" ry="6.0" x="92.0" y="618.0" width="56.0" height="52.0" class=""/>
<text x="120.0" y="644.0" class="tap">1</text>
<rect rx="6.0" ry="6.0" x="152.0" y="618.0" width="56.0" height="52.0" class=""/>
<text x="180.0" y="644.0" class="tap">2</text>
<rect rx="6.0" ry="6.0" x="212.0" y="618.0" width="56.0" height="52.0" class=""/>
<text x="240.0" y="644.0" class="tap">3</text>
<rect rx="6.0" ry="6.0" x="272.0" y="618.0" width="56.0" height="52.0" class=""/>
<text x="300.0" y="644.0" class="tap">4</text>
<rect rx="6.0" ry="6.0" x="332.0" y="618.0" width="56.0" height="52.0" class=""/>
<text x="360.0" y="644.0" class="tap">5</text>
<rect rx="6.0" ry="6.0" x="422.0" y="618.0" width="56.0" height="52.0" class=""/>
<text x="450.0" y="644.0" class="tap">6</text>
<rect rx="6.0" ry="6.0" x="482.0" y="618.0" width="56.0" height="52.0" class=""/>
<text x="510.0" y="644.0" class="tap">7</text>
<rect rx="6.0" ry="6.0" x="542.0" y="618.0" width="56.0" height="52.0" class=""/>
<text x="570.0" y="644.0" class="tap">8</text>
<rect rx="6.0" ry="6.0" x="602.0" y="618.0" width="56.0" height="52.0" class=""/>
<text x="630.0" y="644.0" class="tap">9</text>
<rect rx="6.0" ry="6.0" x="662.0" y="618.0" width="56.0" height="52.0" class=""/>
<text x="690.0" y="644.0" class="tap">0</text>
<rect rx="6.0" ry="6.0" x="722.0" y="618.0" width="56.0" height="52.0" class=""/>
<text x="750.0" y="644.0" class="tap">-</text>
<rect rx="6.0" ry="6.0" x="32.0" y="674.0" width="56.0" height="52.0" class=""/>
<text x="60.0" y="700.0" class="tap">~</text>
<rect rx="6.0" ry="6.0" x="92.0" y="674.0" width="56.0" height="52.0" class=""/>
<text x="120.0" y="700.0" class="tap">!</text>
<rect rx="6.0" ry="6.0" x="152.0" y="674.0" width="56.0" height="52.0" class=""/>
<text x="180.0" y="700.0" class="tap">@</text>
<rect rx="6.0" ry="6.0" x="212.0" y="674.0" width="56.0" height="52.0" class=""/>
<text x="240.0" y="700.0" class="tap">#</text>
<rect rx="6.0" ry="6.0" x="272.0" y="674.0" width="56.0" height="52.0" class=""/>
<text x="300.0" y="700.0" class="tap">$</text>
<rect rx="6.0" ry="6.0" x="332.0" y="674.0" width="56.0" height="52.0" class=""/>
<text x="360.0" y="700.0" class="tap">%</text>
<rect rx="6.0" ry="6.0" x="422.0" y="674.0" width="56.0" height="52.0" class=""/>
<text x="450.0" y="700.0" class="tap">^</text>
<rect rx="6.0" ry="6.0" x="482.0" y="674.0" width="56.0" height="52.0" class=""/>
<text x="510.0" y="700.0" class="tap">&amp;</text>
<rect rx="6.0" ry="6.0" x="542.0" y="674.0" width="56.0" height="52.0" class=""/>
<text x="570.0" y="700.0" class="tap">*</text>
<rect rx="6.0" ry="6.0" x="602.0" y="674.0" width="56.0" height="52.0" class=""/>
<text x="630.0" y="700.0" class="tap">(</text>
<rect rx="6.0" ry="6.0" x="662.0" y="674.0" width="56.0" height="52.0" class=""/>
<text x="690.0" y="700.0" class="tap">)</text>
<rect rx="6.0" ry="6.0" x="722.0" y="674.0" width="56.0" height="52.0" class=""/>
<text x="750.0" y="700.0" class="tap">_</text>
<rect rx="6.0" ry="6.0" x="32.0" y="730.0" width="56.0" height="52.0" class=""/>
<text x="60.0" y="756.0" class="tap">{</text>
<rect rx="6.0" ry="6.0" x="92.0" y="730.0" width="56.0" height="52.0" class=""/>
<text x="120.0" y="756.0" class="tap">}</text>
<rect rx="6.0" ry="6.0" x="152.0" y="730.0" width="56.0" height="52.0" class=""/>
<text x="180.0" y="756.0" class="tap">[</text>
<rect rx="6.0" ry="6.0" x="212.0" y="730.0" width="56.0" height="52.0" class=""/>
<text x="240.0" y="756.0" class="tap">]</text>
<rect rx="6.0" ry="6.0" x="272.0" y="730.0" width="56.0" height="52.0" class=""/>
<text x="300.0" y="756.0" class="tap">&lt;</text>
<rect rx="6.0" ry="6.0" x="332.0" y="730.0" width="56.0" height="52.0" class=""/>
<text x="360.0" y="756.0" class="tap">&gt;</text>
<rect rx="6.0" ry="6.0" x="422.0" y="730.0" width="56.0" height="52.0" class=""/>
<text x="450.0" y="756.0" class="tap">+</text>
<rect rx="6.0" ry="6.0" x="482.0" y="730.0" width="56.0" height="52.0" class=""/>
<text x="510.0" y="756.0" class="tap">-</text>
<rect rx="6.0" ry="6.0" x="542.0" y="730.0" width="56.0" height="52.0" class=""/>
<text x="570.0" y="756.0" class="tap">=</text>
<rect rx="6.0" ry="6.0" x="602.0" y="730.0" width="56.0" height="52.0" class=""/>
<text x="630.0" y="756.0" class="tap">|</text>
<rect rx="6.0" ry="6.0" x="662.0" y="730.0" width="56.0" height="52.0" class=""/>
<text x="690.0" y="756.0" class="tap">\</text>
<rect rx="6.0" ry="6.0" x="722.0" y="730.0" width="56.0" height="52.0" class=""/>
<text x="750.0" y="756.0" class="tap">?</text>
<rect rx="6.0" ry="6.0" x="212.0" y="786.0" width="56.0" height="52.0" class=""/>
<text x="240.0" y="812.0" class="tap">Alt</text>
<rect rx="6.0" ry="6.0" x="272.0" y="786.0" width="56.0" height="52.0" class=""/>
<text x="300.0" y="812.0" class="tap">Gui</text>
<rect rx="6.0" ry="6.0" x="332.0" y="786.0" width="56.0" height="52.0" class="held"/>
<text x="360.0" y="812.0" class="held tap">Space</text>
<text x="360.0" y="836.0" class="held hold">L_NUMBER</text>
<rect rx="6.0" ry="6.0" x="422.0" y="786.0" width="56.0" height="52.0" class=""/>
<text x="450.0" y="812.0" class="tap">Enter</text>
<text x="450.0" y="836.0" class="hold">L_FUNCTION</text>
<rect rx="6.0" ry="6.0" x="482.0" y="786.0" width="56.0" height="52.0" class=""/>
<text x="510.0" y="812.0" class="tap">Bspace</text>
<text x="510.0" y="836.0" class="hold">Shift</text>
<rect rx="6.0" ry="6.0" x="542.0" y="786.0" width="56.0" height="52.0" class=""/>
<text x="570.0" y="812.0" class="tap">Esc/`</text>
</g>
<g class="layer-FUNCTION">
<text x="30.0" y="868.0" class="label">FUNCTION:</text>
<rect rx="6.0" ry="6.0" x="32.0" y="898.0" width="56.0" height="52.0" class=""/>
<rect rx="6.0" ry="6.0" x="92.0" y="898.0" width="56.0" height="52.0" class=""/>
<rect rx="6.0" ry="6.0" x="152.0" y="898.0" width="56.0" height="52.0" class=""/>
<text x="180.0" y="924.0" class="tap">↑</text>
<rect rx="6.0" ry="6.0" x="212.0" y="898.0" width="56.0" height="52.0" class=""/>
<rect rx="6.0" ry="6.0" x="272.0" y="898.0" width="56.0" height="52.0" class=""/>
<rect rx="6.0" ry="6.0" x="332.0" y="898.0" width="56.0" height="52.0" class=""/>
<rect rx="6.0" ry="6.0" x="422.0" y="898.0" width="56.0" height="52.0" class=""/>
<text x="450.0" y="924.0" class="tap">F1</text>
<rect rx="6.0" ry="6.0" x="482.0" y="898.0" width="56.0" height="52.0" class=""/>
<text x="510.0" y="924.0" class="tap">F2</text>
<rect rx="6.0" ry="6.0" x="542.0" y="898.0" width="56.0" height="52.0" class=""/>
<text x="570.0" y="924.0" class="tap">F3</text>
<rect rx="6.0" ry="6.0" x="602.0" y="898.0" width="56.0" height="52.0" class=""/>
<text x="630.0" y="924.0" class="tap">F4</text>
<rect rx="6.0" ry="6.0" x="662.0" y="898.0" width="56.0" height="52.0" class=""/>
<text x="690.0" y="924.0" class="tap">F5</text>
<rect rx="6.0" ry="6.0" x="722.0" y="898.0" width="56.0" height="52.0" class=""/>
<text x="750.0" y="924.0" class="tap">F6</text>
<rect rx="6.0" ry="6.0" x="32.0" y="954.0" width="56.0" height="52.0" class=""/>
<rect rx="6.0" ry="6.0" x="92.0" y="954.0" width="56.0" height="52.0" class=""/>
<text x="120.0" y="980.0" class="tap">←</text>
<rect rx="6.0" ry="6.0" x="152.0" y="954.0" width="56.0" height="52.0" class=""/>
<text x="180.0" y="980.0" class="tap">↓</text>
<rect rx="6.0" ry="6.0" x="212.0" y="954.0" width="56.0" height="52.0" class=""/>
<text x="240.0" y="980.0" class="tap">→</text>
<rect rx="6.0" ry="6.0" x="272.0" y="954.0" width="56.0" height="52.0" class=""/>
<rect rx="6.0" ry="6.0" x="332.0" y="954.0" width="56.0" height="52.0" class=""/>
<rect rx="6.0" ry="6.0" x="422.0" y="954.0" width="56.0" height="52.0" class=""/>
<text x="450.0" y="980.0" class="tap">F7</text>
<rect rx="6.0" ry="6.0" x="482.0" y="954.0" width="56.0" height="52.0" class=""/>
<text x="510.0" y="980.0" class="tap">F8</text>
<rect rx="6.0" ry="6.0" x="542.0" y="954.0" width="56.0" height="52.0" class=""/>
<text x="570.0" y="980.0" class="tap">F9</text>
<rect rx="6.0" ry="6.0" x="602.0" y="954.0" width="56.0" height="52.0" class=""/>
<text x="630.0" y="980.0" class="tap">F10</text>
<rect rx="6.0" ry="6.0" x="662.0" y="954.0" width="56.0" height="52.0" class=""/>
<text x="690.0" y="980.0" class="tap">F11</text>
<rect rx="6.0" ry="6.0" x="722.0" y="954.0" width="56.0" height="52.0" class=""/>
<text x="750.0" y="980.0" class="tap">F12</text>
<rect rx="6.0" ry="6.0" x="32.0" y="1010.0" width="56.0" height="52.0" class=""/>
<rect rx="6.0" ry="6.0" x="92.0" y="1010.0" width="56.0" height="52.0" class=""/>
<rect rx="6.0" ry="6.0" x="152.0" y="1010.0" width="56.0" height="52.0" class=""/>
<rect rx="6.0" ry="6.0" x="212.0" y="1010.0" width="56.0" height="52.0" class=""/>
<rect rx="6.0" ry="6.0" x="272.0" y="1010.0" width="56.0" height="52.0" class=""/>
<rect rx="6.0" ry="6.0" x="332.0" y="1010.0" width="56.0" height="52.0" class=""/>
<rect rx="6.0" ry="6.0" x="422.0" y="1010.0" width="56.0" height="52.0" class=""/>
<rect rx="6.0" ry="6.0" x="482.0" y="1010.0" width="56.0" height="52.0" class=""/>
<rect rx="6.0" ry="6.0" x="542.0" y="1010.0" width="56.0" height="52.0" class=""/>
<rect rx="6.0" ry="6.0" x="602.0" y="1010.0" width="56.0" height="52.0" class=""/>
<rect rx="6.0" ry="6.0" x="662.0" y="1010.0" width="56.0" height="52.0" class=""/>
<rect rx="6.0" ry="6.0" x="722.0" y="1010.0" width="56.0" height="52.0" class=""/>
<rect rx="6.0" ry="6.0" x="212.0" y="1066.0" width="56.0" height="52.0" class=""/>
<text x="240.0" y="1092.0" class="tap">Alt</text>
<rect rx="6.0" ry="6.0" x="272.0" y="1066.0" width="56.0" height="52.0" class=""/>
<text x="300.0" y="1092.0" class="tap">Gui</text>
<rect rx="6.0" ry="6.0" x="332.0" y="1066.0" width="56.0" height="52.0" class=""/>
<text x="360.0" y="1092.0" class="tap">Space</text>
<text x="360.0" y="1116.0" class="hold">L_NUMBER</text>
<rect rx="6.0" ry="6.0" x="422.0" y="1066.0" width="56.0" height="52.0" class="held"/>
<text x="450.0" y="1092.0" class="held tap">Enter</text>
<text x="450.0" y="1116.0" class="held hold">L_FUNCTION</text>
<rect rx="6.0" ry="6.0" x="482.0" y="1066.0" width="56.0" height="52.0" class=""/>
<text x="510.0" y="1092.0" class="tap">Bspace</text>
<text x="510.0" y="1116.0" class="hold">Shift</text>
<rect rx="6.0" ry="6.0" x="542.0" y="1066.0" width="56.0" height="52.0" class=""/>
<text x="570.0" y="1092.0" class="tap">Esc/`</text>
</g>
<g class="layer-ADJUST">
<text x="30.0" y="1148.0" class="label">ADJUST:</text>
<rect rx="6.0" ry="6.0" x="32.0" y="1178.0" width="56.0" height="52.0" class=""/>
<rect rx="6.0" ry="6.0" x="92.0" y="1178.0" width="56.0" height="52.0" class=""/>
<rect rx="6.0" ry="6.0" x="152.0" y="1178.0" width="56.0" height="52.0" class=""/>
<rect rx="6.0" ry="6.0" x="212.0" y="1178.0" width="56.0" height="52.0" class=""/>
<rect rx="6.0" ry="6.0" x="272.0" y="1178.0" width="56.0" height="52.0" class=""/>
<rect rx="6.0" ry="6.0" x="332.0" y="1178.0" width="56.0" height="52.0" class=""/>
<rect rx="6.0" ry="6.0" x="422.0" y="1178.0" width="56.0" height="52.0" class=""/>
<rect rx="6.0" ry="6.0" x="482.0" y="1178.0" width="56.0" height="52.0" class=""/>
<rect rx="6.0" ry="6.0" x="542.0" y="1178.0" width="56.0" height="52.0" class=""/>
<rect rx="6.0" ry="6.0" x="602.0" y="1178.0" width="56.0" height="52.0" class=""/>
<rect rx="6.0" ry="6.0" x="662.0" y="1178.0" width="56.0" height="52.0" class=""/>
<text x="690.0" y="1204.0" class="tap">COLEMAK</text>
<rect rx="6.0" ry="6.0" x="722.0" y="1178.0" width="56.0" height="52.0" class=""/>
<text x="750.0" y="1204.0" class="tap">QWERTY</text>
<rect rx="6.0" ry="6.0" x="32.0" y="1234.0" width="56.0" height="52.0" class=""/>
<text x="60.0" y="1260.0" class="tap">
<tspan x="60.0" dy="-0.6em">BT</tspan><tspan x="60.0" dy="1.2em">CLR</tspan></text>
<rect rx="6.0" ry="6.0" x="92.0" y="1234.0" width="56.0" height="52.0" class=""/>
<text x="120.0" y="1260.0" class="tap">
<tspan x="120.0" dy="-0.6em">BT</tspan><tspan x="120.0" dy="1.2em">1</tspan></text>
<rect rx="6.0" ry="6.0" x="152.0" y="1234.0" width="56.0" height="52.0" class=""/>
<text x="180.0" y="1260.0" class="tap">
<tspan x="180.0" dy="-0.6em">BT</tspan><tspan x="180.0" dy="1.2em">2</tspan></text>
<rect rx="6.0" ry="6.0" x="212.0" y="1234.0" width="56.0" height="52.0" class=""/>
<text x="240.0" y="1260.0" class="tap">
<tspan x="240.0" dy="-0.6em">BT</tspan><tspan x="240.0" dy="1.2em">3</tspan></text>
<rect rx="6.0" ry="6.0" x="272.0" y="1234.0" width="56.0" height="52.0" class=""/>
<text x="300.0" y="1260.0" class="tap">
<tspan x="300.0" dy="-0.6em">BT</tspan><tspan x="300.0" dy="1.2em">4</tspan></text>
<rect rx="6.0" ry="6.0" x="332.0" y="1234.0" width="56.0" height="52.0" class=""/>
<text x="360.0" y="1260.0" class="tap">
<tspan x="360.0" dy="-0.6em">BT</tspan><tspan x="360.0" dy="1.2em">5</tspan></text>
<rect rx="6.0" ry="6.0" x="422.0" y="1234.0" width="56.0" height="52.0" class=""/>
<rect rx="6.0" ry="6.0" x="482.0" y="1234.0" width="56.0" height="52.0" class=""/>
<rect rx="6.0" ry="6.0" x="542.0" y="1234.0" width="56.0" height="52.0" class=""/>
<rect rx="6.0" ry="6.0" x="602.0" y="1234.0" width="56.0" height="52.0" class=""/>
<rect rx="6.0" ry="6.0" x="662.0" y="1234.0" width="56.0" height="52.0" class=""/>
<rect rx="6.0" ry="6.0" x="722.0" y="1234.0" width="56.0" height="52.0" class=""/>
<rect rx="6.0" ry="6.0" x="32.0" y="1290.0" width="56.0" height="52.0" class=""/>
<rect rx="6.0" ry="6.0" x="92.0" y="1290.0" width="56.0" height="52.0" class=""/>
<rect rx="6.0" ry="6.0" x="152.0" y="1290.0" width="56.0" height="52.0" class=""/>
<rect rx="6.0" ry="6.0" x="212.0" y="1290.0" width="56.0" height="52.0" class=""/>
<rect rx="6.0" ry="6.0" x="272.0" y="1290.0" width="56.0" height="52.0" class=""/>
<rect rx="6.0" ry="6.0" x="332.0" y="1290.0" width="56.0" height="52.0" class=""/>
<rect rx="6.0" ry="6.0" x="422.0" y="1290.0" width="56.0" height="52.0" class=""/>
<text x="450.0" y="1316.0" class="tap">Vol-</text>
<rect rx="6.0" ry="6.0" x="482.0" y="1290.0" width="56.0" height="52.0" class=""/>
<text x="510.0" y="1316.0" class="tap">Vol+</text>
<rect rx="6.0" ry="6.0" x="542.0" y="1290.0" width="56.0" height="52.0" class=""/>
<rect rx="6.0" ry="6.0" x="602.0" y="1290.0" width="56.0" height="52.0" class=""/>
<rect rx="6.0" ry="6.0" x="662.0" y="1290.0" width="56.0" height="52.0" class=""/>
<text x="690.0" y="1316.0" class="tap">Bri-</text>
<rect rx="6.0" ry="6.0" x="722.0" y="1290.0" width="56.0" height="52.0" class=""/>
<text x="750.0" y="1316.0" class="tap">Bri+</text>
<rect rx="6.0" ry="6.0" x="212.0" y="1346.0" width="56.0" height="52.0" class=""/>
<text x="240.0" y="1372.0" class="tap">Alt</text>
<rect rx="6.0" ry="6.0" x="272.0" y="1346.0" width="56.0" height="52.0" class=""/>
<text x="300.0" y="1372.0" class="tap">Gui</text>
<rect rx="6.0" ry="6.0" x="332.0" y="1346.0" width="56.0" height="52.0" class="held"/>
<text x="360.0" y="1372.0" class="held tap">Space</text>
<text x="360.0" y="1396.0" class="held hold">L_NUMBER</text>
<rect rx="6.0" ry="6.0" x="422.0" y="1346.0" width="56.0" height="52.0" class="held"/>
<text x="450.0" y="1372.0" class="held tap">Enter</text>
<text x="450.0" y="1396.0" class="held hold">L_FUNCTION</text>
<rect rx="6.0" ry="6.0" x="482.0" y="1346.0" width="56.0" height="52.0" class=""/>
<text x="510.0" y="1372.0" class="tap">Bspace</text>
<text x="510.0" y="1396.0" class="hold">Shift</text>
<rect rx="6.0" ry="6.0" x="542.0" y="1346.0" width="56.0" height="52.0" class=""/>
<text x="570.0" y="1372.0" class="tap">Esc/`</text>
</g>
</svg>
